<svg width="390" height="480" viewBox="0 0 390 480" fill="none" xmlns="http://www.w3.org/2000/svg">
<g clip-path="url(#clip0_501_32)">
<path d="M353.146 477.777H270.452V473.561C270.452 469.9 271.327 466.389 272.885 463.801C274.443 461.212 276.556 459.758 278.76 459.758H344.838C347.041 459.758 349.154 461.212 350.712 463.801C352.27 466.389 353.146 469.9 353.146 473.561V477.777V477.777Z" fill="#E6E6E6"/>
<path d="M309.864 460.599L312.378 458.917C286.066 350.403 288.601 213.503 310.843 96.0681C313.486 82.4616 313.676 67.8685 311.392 54.0844C309.107 40.3002 304.447 27.9263 297.985 18.4848C285.075 -0.656786 267.277 -5.31985 251.533 6.31415C235.992 17.7997 233.85 37.8058 233.85 57.7145H236.561C236.561 36.4629 239.295 20.289 252.635 10.4301C267.39 -0.473122 284.076 3.90015 296.18 21.8463C302.249 30.7138 306.626 42.3359 308.772 55.2825C310.918 68.2291 310.739 81.9355 308.257 94.7154C285.758 213.507 283.372 351.346 309.864 460.599Z" fill="#E6E6E6"/>
<path d="M235.884 124.159C241.125 124.159 245.373 117.1 245.373 108.392C245.373 99.6847 241.125 92.6258 235.884 92.6258C230.643 92.6258 226.394 99.6847 226.394 108.392C226.394 117.1 230.643 124.159 235.884 124.159Z" fill="#E6E6E6"/>
<path d="M221.269 135.878V106.004H224.065V135.878C224.867 136.417 225.531 137.402 225.944 138.666C226.356 139.929 226.491 141.391 226.326 142.802C226.161 144.213 225.705 145.484 225.038 146.399C224.37 147.313 223.532 147.813 222.667 147.813C221.802 147.813 220.964 147.313 220.296 146.399C219.629 145.484 219.173 144.213 219.008 142.802C218.843 141.391 218.978 139.929 219.39 138.666C219.803 137.402 220.467 136.417 221.269 135.878Z" fill="#E6E6E6"/>
<path d="M207.754 83.0531C207.759 76.1859 209.403 69.6022 212.326 64.7463C215.248 59.8904 219.211 57.159 223.344 57.1512H249.101C253.236 57.1512 257.201 59.8801 260.125 64.7377C263.048 69.5952 264.691 76.1835 264.691 83.0531C264.691 89.9228 263.048 96.511 260.125 101.369C257.201 106.226 253.236 108.955 249.101 108.955H223.344C219.211 108.947 215.248 106.216 212.326 101.36C209.403 96.5041 207.759 89.9204 207.754 83.0531V83.0531Z" fill="white"/>
<path d="M171.464 243.455C174.05 188.483 187.272 162.292 178.806 145.867C170.696 130.134 147.852 133.384 133.181 148.481C93.6103 189.201 79.1131 351.494 130.034 430.787C178.423 506.136 270.128 482.003 290.508 420.332C295.263 405.942 299.041 380.716 292.081 365.439C274.802 327.51 211.981 396.209 184.05 353.24C167.497 327.775 170.045 273.623 171.464 243.455Z" fill="#3F3D56"/>
<path d="M201.712 216.144C200.751 216.879 200 218.208 199.62 219.848C199.239 221.488 199.259 223.31 199.675 224.926C199.762 225.253 199.866 225.566 199.985 225.864L191.492 244.706L195.73 255.231L205.685 227.329C206.39 226.415 206.894 225.139 207.117 223.7C207.339 222.261 207.269 220.74 206.917 219.373C206.712 218.599 206.418 217.9 206.05 217.315C205.682 216.73 205.249 216.271 204.775 215.965C204.3 215.658 203.794 215.509 203.286 215.528C202.777 215.546 202.275 215.731 201.809 216.071C201.777 216.095 201.744 216.119 201.712 216.144Z" fill="#FFB6B6"/>
<path d="M201.705 248.631C202.261 249.45 200.719 250.461 199.088 248.866C198.622 248.405 198.422 248.213 198.37 248.335C198.239 248.64 199.005 250.888 198.8 255.88C198.674 258.86 195.695 264.463 192.313 269.926C187.74 277.315 182.422 284.442 182.422 284.442L180.555 281.959L160.979 255.88L157.675 248.283C157.977 245.282 158.432 242.33 159.033 239.456C159.861 235.479 160.846 231.596 161.98 227.833C162.589 225.785 163.213 223.833 163.811 222.039L174.299 241.242L183.088 257.327C183.088 257.327 185.647 250.478 187.63 248.614C187.883 248.346 188.17 248.181 188.469 248.135C190.472 247.978 190.593 246.165 188.27 242.218C185.946 238.271 188.878 241.957 190.944 240.894C193.01 239.831 190.944 240.894 191.379 238.236C191.815 235.579 197.61 230.246 197.61 230.246L197.851 230.604L202.23 237.025L203.483 238.864C203.483 238.864 202.114 245.102 201.737 246.418C201.359 247.734 201.155 247.803 201.705 248.631Z" fill="white"/>
<path d="M317.14 369.67L317.353 360.059L295.143 354.118L294.828 368.302L317.14 369.67Z" fill="#FFB6B6"/>
<path d="M313.108 372.564L312.897 357.176L316.857 357.419L323.249 343.193C323.565 342.49 324.007 341.973 324.512 341.718C325.017 341.463 325.558 341.483 326.055 341.774C326.553 342.066 326.982 342.614 327.278 343.339C327.575 344.064 327.725 344.928 327.705 345.804L327.299 364.084L323.313 366.995L327.202 368.465L327.049 375.357L313.108 372.564Z" fill="#2F2E41"/>
<path d="M192.139 373.412L262.486 376.376C262.486 376.376 292.865 379.291 299.992 371.587L307.509 370.011L307.916 351.667C307.916 351.667 303.32 351.724 300.677 349.678C298.035 347.632 299.871 345.129 297.352 347.59C294.832 350.052 295.098 350.348 293.15 349.217C291.203 348.085 201.875 325.463 201.875 325.463L192.139 373.412Z" fill="#2F2E41"/>
<path d="M284.838 365.452L288.929 358.648L275.079 329.194L269.042 339.237L284.838 365.452Z" fill="#FFB6B6"/>
<path d="M280.698 359.533L286.843 348.014L289.646 352.666L300.156 349.46C300.675 349.302 301.211 349.423 301.685 349.806C302.16 350.19 302.548 350.815 302.794 351.592C303.039 352.368 303.129 353.254 303.05 354.121C302.971 354.988 302.727 355.79 302.354 356.41L294.573 369.353L290.459 366.982L292.709 372.454L289.775 377.334L280.698 359.533Z" fill="#2F2E41"/>
<path d="M164.384 309.401L165.084 336.411C165.907 368.208 186.983 387.453 203.326 370.851C203.628 370.545 203.93 370.228 204.233 369.9C204.233 369.9 210.429 367.136 210.241 362.758C210.053 358.38 211.566 356.249 212.906 357.443C214.245 358.637 231.783 317.284 231.783 317.284C231.783 317.284 268.221 347.483 276.259 354.592C276.259 354.592 283.817 334.958 283.269 335.164C282.721 335.37 238.191 283.587 238.191 283.587C238.191 283.587 230.936 271.388 221.938 279.442C221.75 280.625 221.91 280.667 221.91 280.667L192.184 320.912L187.983 307.658L164.384 309.401Z" fill="#2F2E41"/>
<path d="M192.413 275.633C192.356 276.881 192.249 278.121 192.093 279.345C191.879 281.117 191.533 282.838 191.065 284.468C191.065 284.468 191.065 286.289 188.967 292.389C186.869 298.488 189.492 295.874 191.065 300.405C192.638 304.927 191.065 302.844 189.318 305.755C188.816 306.602 188.459 307.657 188.284 308.811C188.11 309.964 188.125 311.175 188.327 312.316C188.327 312.316 165.798 312.342 161.603 309.728C157.407 307.114 156.453 292.389 160.213 290.934C163.968 289.478 159.075 288.032 156.867 284.678C154.659 281.323 159.075 275.834 159.075 275.834C159.075 275.834 157.255 270.615 157.407 253.092C157.429 251.481 157.518 249.874 157.675 248.283C157.977 245.282 158.432 242.33 159.033 239.456C159.861 235.479 160.846 231.596 161.98 227.833C162.589 225.785 163.213 223.834 163.81 222.039C163.905 221.76 163.994 221.49 164.088 221.22C165.226 217.874 166.265 215.138 166.952 213.387C167.481 212.027 167.801 211.26 167.801 211.26L171.619 200.23L184.363 210.154L183.639 226.386L185.836 238.628L186.848 244.266L187.63 248.614L188.836 255.349C188.836 255.349 188.506 255.375 188.899 256.273C190.71 260.274 191.885 264.97 192.313 269.926C192.464 271.818 192.497 273.73 192.413 275.633V275.633Z" fill="white"/>
<path d="M229.214 277.383L228.975 277.254L198.474 260.935L209.713 199.672C209.937 198.452 210.325 197.332 210.847 196.397C211.369 195.462 212.012 194.736 212.728 194.274C213.443 193.812 214.212 193.626 214.977 193.73C215.742 193.834 216.483 194.225 217.144 194.874L236.636 214.007C238.178 215.52 239.352 217.885 239.952 220.69C240.552 223.495 240.539 226.561 239.916 229.352L229.214 277.383Z" fill="#2F2E41"/>
<path d="M229.338 281.277L198.592 264.827L209.831 203.563C210.055 202.343 210.442 201.224 210.965 200.289C211.487 199.354 212.13 198.628 212.845 198.166C213.561 197.704 214.33 197.518 215.095 197.622C215.86 197.726 216.601 198.117 217.262 198.765L237.684 215.706C240.752 218.717 240.68 226.51 239.256 232.904L229.338 281.277Z" fill="white"/>
<path d="M226.26 285.712C225.552 286.375 224.768 286.787 223.959 286.921C223.151 287.054 222.334 286.907 221.561 286.488L201.909 275.973C200.401 275.155 199.145 273.389 198.41 271.053C197.676 268.718 197.519 265.997 197.976 263.473L207.828 209.768C208.025 208.695 208.349 207.698 208.781 206.836C209.213 205.974 209.744 205.263 210.343 204.746C210.942 204.23 211.597 203.917 212.27 203.827C212.943 203.736 213.62 203.87 214.262 204.22L234.628 215.33C235.598 215.859 236.495 216.706 237.265 217.821C238.035 218.936 238.663 220.296 239.111 221.82C239.559 223.345 239.819 225.003 239.876 226.698C239.932 228.392 239.783 230.088 239.438 231.685L228.904 280.482C228.431 282.698 227.492 284.555 226.26 285.712V285.712Z" fill="#3F3D56"/>
<path d="M183.642 200.418C191.416 200.418 197.718 189.947 197.718 177.031C197.718 164.115 191.416 153.644 183.642 153.644C175.868 153.644 169.566 164.115 169.566 177.031C169.566 189.947 175.868 200.418 183.642 200.418Z" fill="#FFB6B6"/>
<path d="M136.044 200.77C137.335 204.93 139.453 208.22 142.039 210.081C143.07 210.862 144.155 211.433 145.269 211.78C145.584 209.705 146.088 207.722 146.764 205.9C146.539 207.954 146.539 210.058 146.764 212.111C148.461 212.342 150.169 211.99 151.781 211.076C153.364 210.182 154.8 208.687 155.975 206.709C157.15 204.732 158.031 202.327 158.549 199.686C159.67 193.486 158.462 186.865 158.367 180.395C158.269 173.923 160.119 166.183 163.985 165.382C166.93 164.772 166.566 165.246 168.681 168.702C165.722 174.164 172.937 198.358 176.809 197.289C178.997 196.685 180.608 193.797 181.041 193.897C183.258 202.918 176.589 215.71 181.878 219.91L181.486 219.047C178.718 211.448 186.909 198.615 184.141 191.016C183.369 188.89 182.567 186.398 183.044 184.046C183.497 181.811 185.792 181.103 186.277 183.138C185.49 178.474 187.687 173 190.606 172.524C193.199 172.099 193.049 173.326 195.521 174.447C195.837 172.677 196.293 170.985 196.875 169.413C196.678 171.206 196.654 173.04 196.803 174.845C197.695 175.022 198.597 174.705 199.369 173.943C201.652 171.669 201.72 165.799 200.152 162.227C198.58 158.654 195.949 156.889 193.41 155.554C193.386 146.633 178.938 142.362 176.281 150.657C176.007 143.941 171.374 139.417 167.383 140.558C163.391 141.699 160.242 147.016 158.322 152.943C156.403 158.866 155.45 165.497 154.045 171.805C152.64 178.114 150.631 184.404 147.266 188.147C143.902 191.885 138.902 192.224 136.093 187.379C135.452 189.448 135.114 191.738 135.105 194.065C135.097 196.392 135.418 198.689 136.044 200.77V200.77Z" fill="#2F2E41"/>
<path d="M150.487 307.717C150.778 307.33 151.094 306.998 151.429 306.726C156.817 302.271 173.571 290.706 186.672 291.181C211.879 292.094 243.958 338.314 236.492 369.353C230.811 392.971 202.569 406.408 181.952 395.661C153.07 380.605 141.67 319.397 150.487 307.717Z" fill="#3F3D56"/>
<path d="M45.8425 477.866C37.6059 475.284 30.315 413.631 46.5203 383.267C52.0725 372.864 58.9981 368.336 68.2104 364.122C121.234 339.869 161.675 362.983 167.11 368.627C172.532 374.258 182.039 459.099 169.883 471.109C163.043 477.866 149.487 481.244 142.77 473.361C132.887 461.761 149.476 431.674 142.092 411.421C133.713 388.439 89.5917 380.698 67.4712 403.538C43.8708 427.906 92.5503 492.506 45.8425 477.866Z" fill="#F2F2F2"/>
<path d="M100.911 373.043H69.4446C61.6767 360.674 56.1227 348.754 60.5693 338.859C60.5693 336.015 61.2494 333.287 62.4599 331.276C63.6704 329.264 65.3121 328.134 67.024 328.134H103.332C105.044 328.134 106.686 329.264 107.896 331.276C109.107 333.287 109.787 336.015 109.787 338.859C111.48 350.133 108.455 361.53 100.911 373.043Z" fill="#CCCCCC"/>
<path d="M95.2601 314.634C94.9616 314.656 94.666 314.526 94.4135 314.26C94.161 313.995 93.9637 313.607 93.8484 313.149C93.7331 312.69 93.7053 312.184 93.7689 311.699C93.8325 311.214 93.9843 310.773 94.2037 310.436L94.3036 309.776C94.2904 309.723 94.2772 309.67 94.2639 309.618C93.9632 308.437 93.4591 307.431 92.8152 306.725C92.1713 306.019 91.4162 305.645 90.6447 305.65C89.8732 305.654 89.1198 306.038 88.479 306.752C87.8383 307.466 87.3388 308.478 87.0433 309.662C85.8623 314.388 84.3588 319.122 83.9885 324.119C83.8255 326.327 83.8943 328.566 84.1918 330.736C81.4181 320.683 79.9777 309.756 79.9685 298.697C79.9679 295.922 80.0607 293.149 80.2464 290.391C80.3999 288.131 80.6129 285.886 80.8853 283.657C82.372 271.564 85.564 260.23 90.1991 250.585C92.4425 248.551 94.2568 245.424 95.3974 241.624C95.8106 240.258 96.1027 238.8 96.2645 237.295C96.0114 237.35 95.3103 230.947 95.5012 230.554C95.1485 229.665 94.5172 229.223 94.1321 228.355C92.2165 224.04 89.5773 224.793 88.1995 230.657C85.2562 233.125 85.2277 237.219 87.0337 241.155C88.1826 243.66 88.3405 247.049 89.3487 249.73C89.2449 249.951 89.137 250.164 89.0333 250.385C87.1374 254.435 85.4849 258.785 84.0996 263.371C84.4365 258.233 84.0344 253.036 82.9265 248.207C81.8036 243.706 79.6989 239.915 77.8454 236.025C75.6191 231.351 71.0539 233.391 70.6617 239.315C70.6579 239.372 70.6541 239.43 70.6505 239.487C70.9258 239.745 71.1953 240.019 71.459 240.309C71.7903 240.676 72.0469 241.202 72.1954 241.816C72.3439 242.43 72.3772 243.105 72.291 243.751C72.2048 244.397 72.0032 244.985 71.7125 245.438C71.4218 245.89 71.0556 246.186 70.6618 246.287L70.6215 246.297C70.7196 247.946 70.893 249.58 71.1401 251.184C68.7623 266.462 73.8957 272.027 81.2255 272.277C81.3873 272.415 81.545 272.553 81.7068 272.684C80.315 279.237 79.442 286.063 79.1097 292.99C78.9216 297.077 78.9327 301.182 79.1429 305.266L79.1305 305.122C78.5994 300.58 77.1413 296.483 75.0025 293.521C71.8258 289.185 67.3378 287.589 63.9107 284.104C63.5465 283.715 63.123 283.508 62.6901 283.506C62.2573 283.504 61.8332 283.708 61.4679 284.094C61.1025 284.479 60.8112 285.03 60.6281 285.682C60.4451 286.334 60.3781 287.059 60.4349 287.772C60.4395 287.822 60.4442 287.873 60.449 287.924C60.9598 288.27 61.4572 288.668 61.9383 289.116C62.2136 289.374 62.4831 289.648 62.7468 289.938C63.078 290.306 63.3347 290.831 63.4831 291.445C63.6316 292.059 63.6649 292.734 63.5788 293.38C63.4926 294.026 63.2909 294.614 63.0002 295.067C62.7095 295.519 62.3433 295.815 61.9496 295.916L61.9092 295.926C61.8802 295.933 61.8553 295.94 61.8263 295.947C62.6992 299.41 63.9244 302.597 65.4481 305.37C66.9348 318.707 73.3204 319.972 80.151 316.088H80.1552C80.9046 321.499 81.9905 326.766 83.3953 331.804H94.9701C95.0117 331.591 95.049 331.37 95.0863 331.156C94.0149 331.268 92.9393 331.162 91.8835 330.839C92.7423 329.088 93.6011 327.324 94.4598 325.573C94.479 325.54 94.497 325.506 94.5138 325.47C94.9494 324.574 95.3892 323.684 95.8248 322.788L95.825 322.787C95.8482 320.04 95.6585 317.3 95.2605 314.634L95.2601 314.634Z" fill="#CCCCCC"/>
<path d="M134.74 370.241C134.932 371.17 135.296 371.974 135.78 372.537C136.264 373.101 136.843 373.395 137.434 373.377L148.977 372.883C149.573 372.864 150.148 372.525 150.618 371.918C151.088 371.31 151.426 370.466 151.584 369.512L153.217 340.49C153.797 340.926 154.428 341.141 155.064 341.12C156.18 341.073 157.239 340.292 158.009 338.948C158.778 337.604 159.195 335.807 159.167 333.952C159.139 332.098 158.668 330.338 157.859 329.059C157.05 327.781 155.969 327.089 154.852 327.135C154.598 327.134 154.345 327.178 154.096 327.266C153.826 326.78 153.497 326.393 153.131 326.131C152.765 325.869 152.37 325.737 151.972 325.743L134.215 326.505C134.068 326.514 133.921 326.545 133.777 326.596C133.388 326.716 133.019 326.974 132.694 327.352C132.37 327.729 132.098 328.218 131.897 328.785C131.695 329.352 131.57 329.984 131.528 330.638C131.486 331.293 131.529 331.955 131.654 332.579L134.74 370.241ZM153.552 338.519L154.715 331.603C154.847 330.804 154.85 329.961 154.723 329.16C154.78 329.16 154.83 329.115 154.886 329.115C155.683 329.088 156.454 329.587 157.03 330.503C157.605 331.418 157.939 332.676 157.958 334C157.977 335.324 157.679 336.606 157.129 337.566C156.58 338.525 155.824 339.083 155.027 339.118C154.512 339.145 154.002 338.938 153.552 338.519V338.519Z" fill="#CCCCCC"/>
<path d="M133.777 326.596C134.156 330.19 138.409 332.716 143.523 332.277C148.226 331.917 152.071 329.173 152.776 325.922C152.515 325.793 152.244 325.733 151.972 325.744L134.215 326.505C134.068 326.514 133.921 326.545 133.777 326.596V326.596Z" fill="white"/>
<path d="M0.618218 479.226L389.382 479.492C389.546 479.492 389.703 479.383 389.819 479.191C389.935 478.998 390 478.737 390 478.464C390 478.192 389.935 477.931 389.819 477.738C389.703 477.545 389.546 477.437 389.382 477.437L0.618218 477.172C0.454255 477.172 0.29701 477.28 0.181071 477.473C0.0651325 477.666 0 477.927 0 478.199C0 478.472 0.0651325 478.733 0.181071 478.926C0.29701 479.118 0.454255 479.226 0.618218 479.226V479.226Z" fill="#CACACA"/>
<path d="M218.664 249.667C217.606 249.731 216.606 250.478 215.875 251.749C215.144 253.02 214.741 254.715 214.751 256.472C214.756 256.83 214.779 257.185 214.82 257.536L202.619 269.504L204.096 281.927L219.743 262.53C220.605 262.137 221.365 261.281 221.904 260.094C222.443 258.908 222.73 257.459 222.721 255.973C222.711 255.128 222.601 254.294 222.397 253.519C222.193 252.744 221.899 252.044 221.532 251.458C221.165 250.871 220.733 250.411 220.259 250.103C219.785 249.795 219.279 249.645 218.77 249.661C218.734 249.662 218.699 249.664 218.664 249.667Z" fill="#FFB6B6"/>
<path d="M208.669 278.198C208.342 277.472 208.202 277.168 208.128 277.251C207.937 277.442 208.121 280.009 206.777 284.482C204.885 290.767 185.051 300.392 185.051 300.392L182.609 292.964L171.868 260.321L168.165 234.157C168.036 233.244 167.973 232.309 167.978 231.372C171.279 227.513 174.784 224.16 178.451 221.356C179.916 222.737 181.033 224.948 181.598 227.585L188.992 262.03L191.942 275.783C191.942 275.783 197.147 269.599 199.035 270.734C200.92 271.877 201.455 270.275 200.223 265.149C198.991 260.022 200.841 265.299 202.993 265.635C205.149 265.975 202.993 265.635 204.011 263.459C205.03 261.284 211.615 260.06 211.615 260.06L211.755 260.545L214.307 269.267L215.037 271.773C215.037 271.773 212.332 276.65 211.679 277.622C211.024 278.601 210.821 278.533 211.142 279.649C211.459 280.759 209.802 280.709 208.669 278.198Z" fill="white"/>
</g>
<defs>
<clipPath id="clip0_501_32">
<rect width="390" height="480" fill="white"/>
</clipPath>
</defs>
</svg>
